<?xml version="1.0" encoding="UTF-8"?>
<svg xmlns="http://www.w3.org/2000/svg" viewBox="0 0 2709.4 520" fill="var(--foreground)">
  <path d="M779.2,46.2c38.4,0,65,4.1,90.1,26.1,27.6,24.6,34.8,57.9,34.8,82.4s-2,50.2-28.2,76.3c-18.9,18.9-47.1,30.2-86.5,30.2h-43v126.5h-66.6V46.2h99.3ZM746.4,203.9h27.1c12.8,0,29.2,0,43.5-10.8,12.3-9.7,18.4-25.1,18.4-39.9s-9.2-31.7-18.9-38.9c-13.8-9.7-31.2-10.8-47.1-10.8h-23v100.4Z"/>
  <path d="M1083.3,166h62.5v221.7h-62.5v-28.7c-22.5,32.3-52.2,35.8-68.1,35.8-68.1,0-113.2-53.2-113.2-118.3s44.5-117.8,110.1-117.8,50.2,3.1,71.2,35.8v-28.7ZM966.6,276.6c0,35.3,25.6,63,61.4,63s61.4-27.6,61.4-63-25.6-62.5-61.4-62.5-61.4,27.1-61.4,62.5Z"/>
  <path d="M1353.6,166h62.5v211.5c0,33.8-3.1,69.1-30.7,96.8-15.4,15.4-42,31.2-87.6,31.2s-68.6-12.8-82.9-25.6c-17.4-14.8-30.7-41-35.8-66h67.6c2.6,10.2,8.2,20.5,15.4,26.6,12.3,11.3,29.2,11.8,37.9,11.8,17.9,0,29.7-6.1,37.9-13.8,14.3-13.8,15.9-31.2,15.9-49.2v-31.2c-21.5,32.8-51.2,36.9-68.1,36.9-29.7,0-55.3-9.2-76.8-30.2-16.4-16.4-35.3-45.1-35.3-88.1s12.8-67.1,34.3-88.1c19.5-18.9,46.6-29.7,76.3-29.7s60.9,22.5,69.6,35.8v-28.7ZM1257.9,229.5c-10.2,9.2-20,24.1-20,47.1s7.2,33.8,16.4,43.5c13.3,14.3,30.2,19.5,45.1,19.5s30.7-5.6,41.5-15.4c12.8-11.8,20-29.7,20-47.6s-9.2-35.3-17.9-44.5c-12.3-12.8-26.6-17.9-43.5-17.9s-33.8,8.2-41.5,15.4Z"/>
  <path d="M1672.6,325.8c-6.7,16.4-31.7,69.1-109.1,69.1s-63-10.2-85-31.2c-24.6-23-34.8-51.7-34.8-86.5s17.9-71.2,33.8-87c26.1-25.6,56.8-31.2,83.5-31.2,45.1,0,71.2,17.9,86.5,36.4,23.6,28.2,26.6,63,26.6,87v5.1h-165.9c0,13.3,3.6,27.6,10.8,37.4,6.7,9.2,20.5,21,44.5,21s41.5-11.3,51.7-29.2l57.3,9.2ZM1615.3,247.5c-5.1-30.2-29.7-44.5-52.7-44.5s-47.1,14.8-52.2,44.5h105Z"/>
  <path d="M1800.1,46.2c47.6,0,89.1,5.1,127,33.3,41.5,31.2,65.5,80.9,65.5,137.7s-23.6,106-68.6,137.7c-39.9,28.2-77.3,32.8-124.9,32.8h-88.1V46.2h89.1ZM1777.6,330.4h20.5c16.9,0,53.8-1,83.5-22.5,27.1-19.5,42.5-54.3,42.5-90.6s-14.8-70.7-42-91.1c-27.6-20.5-61.4-22.5-84-22.5h-20.5v226.8Z"/>
  <path d="M2241.9,325.8c-6.7,16.4-31.7,69.1-109.1,69.1s-63-10.2-85-31.2c-24.6-23-34.8-51.7-34.8-86.5s17.9-71.2,33.8-87c26.1-25.6,56.8-31.2,83.5-31.2,45.1,0,71.2,17.9,86.5,36.4,23.6,28.2,26.6,63,26.6,87v5.1h-165.9c0,13.3,3.6,27.6,10.8,37.4,6.7,9.2,20.5,21,44.5,21s41.5-11.3,51.7-29.2l57.3,9.2ZM2184.6,247.5c-5.1-30.2-29.7-44.5-52.7-44.5s-47.1,14.8-52.2,44.5h105Z"/>
  <path d="M2448.3,233.6c-13.3-12.3-29.7-19.5-51.2-19.5-41.5,0-62.5,30.2-62.5,62.5s27.1,63,64.5,63,32.3-4.1,49.2-19.5v60.9c-12.3,6.1-31.7,13.8-57.3,13.8s-65.5-13.3-85.5-32.3c-16.9-15.9-35.3-43.5-35.3-85s15.9-70.1,38.4-90.1c27.1-24.1,58.4-28.7,79.9-28.7s42,4.6,59.9,13.3v61.4Z"/>
  <path d="M2537.4,14.5v232.4l82.9-80.9h80.9l-103.9,97.3,112.1,124.4h-82.9l-82.4-94.7-6.7,6.1v88.6h-62.5V14.5h62.5Z"/>
  <rect x="280" y="0" width="240" height="240" rx="45" ry="45" fill="var(--primary)"/>
  <rect x="280" y="280" width="240" height="240" rx="120" ry="120" fill="var(--primary)"/>
  <rect x="0" width="240" height="520" rx="45" ry="45" fill="var(--primary)"/>
</svg>
